<mxfile host="app.diagrams.net" modified="2024-05-11T07:24:25.906Z" agent="Mozilla/5.0 (Windows NT 10.0; Win64; x64) AppleWebKit/537.36 (KHTML, like Gecko) Chrome/124.0.0.0 Safari/537.36" version="24.4.0" etag="5zkv6vAHXN_WtqC9tCMP" type="github">
  <diagram name="Page-1" id="YUrjdFluUgX0ZccNNnId">
    <mxGraphModel>
      <root>
        <mxCell id="0" />
        <mxCell id="1" parent="0" />
      </root>
    </mxGraphModel>
  </diagram>
</mxfile>
